{
 "accessors": [
  {
   "componentType": 5126,
   "type": "VEC3",
   "count": 50,
   "max": [
    7.729869842529297,
    -6.803329944610596,
    41.56650161743164
   ],
   "min": [
    -7.729869842529297,
    -12.263999938964844,
    36.14569854736328
   ],
   "bufferView": 4
  },
  {
   "componentType": 5126,
   "type": "VEC3",
   "count": 50,
   "bufferView": 5
  },
  {
   "componentType": 5126,
   "type": "VEC2",
   "count": 50,
   "bufferView": 6
  },
  {
   "componentType": 5121,
   "type": "SCALAR",
   "count": 192,
   "bufferView": 7
  },
  {
   "componentType": 5126,
   "type": "VEC3",
   "count": 2500,
   "max": [
    17.045299530029297,
    30.28580093383789,
    51.32350158691406
   ],
   "min": [
    -17.045299530029297,
    -16.362199783325195,
    -0.01467910036444664
   ],
   "bufferView": 8
  },
  {
   "componentType": 5126,
   "type": "VEC3",
   "count": 2500,
   "bufferView": 9
  },
  {
   "componentType": 5126,
   "type": "VEC2",
   "count": 2500,
   "bufferView": 10
  },
  {
   "componentType": 5123,
   "type": "SCALAR",
   "count": 12582,
   "bufferView": 11
  },
  {
   "componentType": 5126,
   "type": "VEC3",
   "count": 72,
   "max": [
    5.833209991455078,
    -11.147899627685547,
    37.851898193359375
   ],
   "min": [
    -5.833209991455078,
    -14.441200256347656,
    29.85219955444336
   ],
   "bufferView": 12
  },
  {
   "componentType": 5126,
   "type": "VEC3",
   "count": 72,
   "bufferView": 13
  },
  {
   "componentType": 5126,
   "type": "VEC2",
   "count": 72,
   "bufferView": 14
  },
  {
   "componentType": 5121,
   "type": "SCALAR",
   "count": 336,
   "bufferView": 15
  },
  {
   "componentType": 5126,
   "type": "VEC3",
   "count": 88,
   "max": [
    10.081500053405762,
    -4.784560203552246,
    36.518699645996094
   ],
   "min": [
    -10.081500053405762,
    -12.145899772644043,
    29.907699584960938
   ],
   "bufferView": 16
  },
  {
   "componentType": 5126,
   "type": "VEC3",
   "count": 88,
   "bufferView": 17
  },
  {
   "componentType": 5126,
   "type": "VEC2",
   "count": 88,
   "bufferView": 18
  },
  {
   "componentType": 5121,
   "type": "SCALAR",
   "count": 390,
   "bufferView": 19
  }
 ],
 "asset": {
  "version": "2.0",
  "generator": "clara.io"
 },
 "bufferViews": [
  {
   "buffer": 0,
   "byteOffset": 0,
   "byteLength": 12516
  },
  {
   "buffer": 0,
   "byteOffset": 12516,
   "byteLength": 29029
  },
  {
   "buffer": 0,
   "byteOffset": 41548,
   "byteLength": 15290
  },
  {
   "buffer": 0,
   "byteOffset": 56840,
   "byteLength": 21288
  },
  {
   "buffer": 0,
   "byteOffset": 78128,
   "byteLength": 600,
   "target": 34962,
   "byteStride": 12
  },
  {
   "buffer": 0,
   "byteOffset": 78728,
   "byteLength": 600,
   "target": 34962,
   "byteStride": 12
  },
  {
   "buffer": 0,
   "byteOffset": 79328,
   "byteLength": 400,
   "target": 34962,
   "byteStride": 8
  },
  {
   "buffer": 0,
   "byteOffset": 79728,
   "byteLength": 192,
   "target": 34963
  },
  {
   "buffer": 0,
   "byteOffset": 79920,
   "byteLength": 30000,
   "target": 34962,
   "byteStride": 12
  },
  {
   "buffer": 0,
   "byteOffset": 109920,
   "byteLength": 30000,
   "target": 34962,
   "byteStride": 12
  },
  {
   "buffer": 0,
   "byteOffset": 139920,
   "byteLength": 20000,
   "target": 34962,
   "byteStride": 8
  },
  {
   "buffer": 0,
   "byteOffset": 159920,
   "byteLength": 25164,
   "target": 34963
  },
  {
   "buffer": 0,
   "byteOffset": 185084,
   "byteLength": 864,
   "target": 34962,
   "byteStride": 12
  },
  {
   "buffer": 0,
   "byteOffset": 185948,
   "byteLength": 864,
   "target": 34962,
   "byteStride": 12
  },
  {
   "buffer": 0,
   "byteOffset": 186812,
   "byteLength": 576,
   "target": 34962,
   "byteStride": 8
  },
  {
   "buffer": 0,
   "byteOffset": 187388,
   "byteLength": 336,
   "target": 34963
  },
  {
   "buffer": 0,
   "byteOffset": 187724,
   "byteLength": 1056,
   "target": 34962,
   "byteStride": 12
  },
  {
   "buffer": 0,
   "byteOffset": 188780,
   "byteLength": 1056,
   "target": 34962,
   "byteStride": 12
  },
  {
   "buffer": 0,
   "byteOffset": 189836,
   "byteLength": 704,
   "target": 34962,
   "byteStride": 8
  },
  {
   "buffer": 0,
   "byteOffset": 190540,
   "byteLength": 390,
   "target": 34963
  }
 ],
 "buffers": [
  {
   "byteLength": 190932,
   "uri": "data:application/octet-stream;base64,"
  }
 ],
 "images": [
  {
   "name": "pm0025_00_Mouth1.png",
   "bufferView": 0,
   "mimeType": "image/png"
  },
  {
   "name": "pm0025_00_Eye1.png",
   "bufferView": 1,
   "mimeType": "image/png"
  },
  {
   "name": "pm0025_00_BodyB1.png",
   "bufferView": 2,
   "mimeType": "image/png"
  },
  {
   "name": "pm0025_00_BodyA1.png",
   "bufferView": 3,
   "mimeType": "image/png"
  }
 ],
 "materials": [
  {
   "name": "Material__160",
   "pbrMetallicRoughness": {
    "baseColorTexture": {
     "index": 3,
     "texCoord": 0
    },
    "roughnessFactor": 0.7071,
    "metallicFactor": 0
   },
   "doubleSided": true
  },
  {
   "name": "Material__161",
   "pbrMetallicRoughness": {
    "baseColorFactor": [
     0.6078431372549019,
     0.6078431372549019,
     0.6078431372549019,
     1
    ],
    "baseColorTexture": {
     "index": 2,
     "texCoord": 0
    },
    "roughnessFactor": 0.8165,
    "metallicFactor": 0
   },
   "doubleSided": true
  },
  {
   "name": "Material__162",
   "pbrMetallicRoughness": {
    "baseColorFactor": [
     0.6078431372549019,
     0.6078431372549019,
     0.6078431372549019,
     1
    ],
    "baseColorTexture": {
     "index": 0,
     "texCoord": 0
    },
    "roughnessFactor": 0.8165,
    "metallicFactor": 0
   },
   "doubleSided": true
  },
  {
   "name": "Material__163",
   "pbrMetallicRoughness": {
    "baseColorFactor": [
     0.6078431372549019,
     0.6078431372549019,
     0.6078431372549019,
     1
    ],
    "baseColorTexture": {
     "index": 1,
     "texCoord": 0
    },
    "roughnessFactor": 0.8165,
    "metallicFactor": 0
   },
   "doubleSided": true
  }
 ],
 "meshes": [
  {
   "primitives": [
    {
     "indices": 3,
     "material": 3,
     "mode": 4,
     "attributes": {
      "POSITION": 0,
      "NORMAL": 1,
      "TEXCOORD_0": 2
     }
    }
   ]
  },
  {
   "primitives": [
    {
     "indices": 7,
     "material": 0,
     "mode": 4,
     "attributes": {
      "POSITION": 4,
      "NORMAL": 5,
      "TEXCOORD_0": 6
     }
    }
   ]
  },
  {
   "primitives": [
    {
     "indices": 11,
     "material": 2,
     "mode": 4,
     "attributes": {
      "POSITION": 8,
      "NORMAL": 9,
      "TEXCOORD_0": 10
     }
    }
   ]
  },
  {
   "primitives": [
    {
     "indices": 15,
     "material": 1,
     "mode": 4,
     "attributes": {
      "POSITION": 12,
      "NORMAL": 13,
      "TEXCOORD_0": 14
     }
    }
   ]
  }
 ],
 "nodes": [
  {
   "name": "XY_PikachuM",
   "rotation": [
    0.008450906501748609,
    0.023395163485119476,
    -0.399499446732445,
    0.9163959014776576
   ],
   "children": [
    1,
    2,
    3,
    4
   ]
  },
  {
   "name": "PikachuM_PikachuM",
   "translation": [
    0.3190999925136566,
    1.2798000574111938,
    -1.8583999872207642
   ],
   "rotation": [
    -0.2984611198391497,
    0.6542927606652559,
    0.6258577672370438,
    -0.30186749155139553
   ],
   "mesh": 0
  },
  {
   "name": "PikachuM_PikachuM",
   "translation": [
    0.3190999925136566,
    1.2798000574111938,
    -1.8583999872207642
   ],
   "rotation": [
    -0.2984611198391497,
    0.6542927606652559,
    0.6258577672370438,
    -0.30186749155139553
   ],
   "mesh": 1
  },
  {
   "name": "PikachuM_PikachuM",
   "translation": [
    0.3190999925136566,
    1.2798000574111938,
    -1.8583999872207642
   ],
   "rotation": [
    -0.2984611198391497,
    0.6542927606652559,
    0.6258577672370438,
    -0.30186749155139553
   ],
   "mesh": 2
  },
  {
   "name": "PikachuM_PikachuM",
   "translation": [
    0.3190999925136566,
    1.2798000574111938,
    -1.8583999872207642
   ],
   "rotation": [
    -0.2984611198391497,
    0.6542927606652559,
    0.6258577672370438,
    -0.30186749155139553
   ],
   "mesh": 3
  }
 ],
 "samplers": [
  {
   "magFilter": 9729,
   "minFilter": 9987,
   "wrapS": 10497,
   "wrapT": 10497
  }
 ],
 "scene": 0,
 "scenes": [
  {
   "nodes": [
    0
   ]
  }
 ],
 "textures": [
  {
   "sampler": 0,
   "source": 0
  },
  {
   "sampler": 0,
   "source": 1
  },
  {
   "sampler": 0,
   "source": 2
  },
  {
   "sampler": 0,
   "source": 3
  }
 ]
}